<svg id="visual" viewBox="0 0 900 600" width="900" height="600" xmlns="http://www.w3.org/2000/svg" xmlns:xlink="http://www.w3.org/1999/xlink" version="1.1"><g stroke-width="1" stroke-linejoin="bevel"><path d="M458 289.9L566 182.1L438 242.9Z" fill="#00101c" stroke="#00101c"></path><path d="M458 289.9L588 212.4L566 182.1Z" fill="#00101c" stroke="#00101c"></path><path d="M588 212.4L592 205.4L566 182.1Z" fill="#1d4e6b" stroke="#1d4e6b"></path><path d="M566 182.1L454 174.1L438 242.9Z" fill="#1d4e6b" stroke="#1d4e6b"></path><path d="M454 174.1L444 173.7L438 242.9Z" fill="#112e42" stroke="#112e42"></path><path d="M572 100.7L532 131.7L566 182.1Z" fill="#15384f" stroke="#15384f"></path><path d="M566 182.1L532 131.7L454 174.1Z" fill="#0c2435" stroke="#0c2435"></path><path d="M454 174.1L499 87.4L444 173.7Z" fill="#0c2435" stroke="#0c2435"></path><path d="M458 289.9L542 363.9L588 212.4Z" fill="#297ea6" stroke="#297ea6"></path><path d="M588 212.4L670 238.1L592 205.4Z" fill="#081a28" stroke="#081a28"></path><path d="M668 158.1L572 100.7L566 182.1Z" fill="#0c2435" stroke="#0c2435"></path><path d="M532 131.7L499 87.4L454 174.1Z" fill="#246688" stroke="#246688"></path><path d="M572 100.7L499 87.4L532 131.7Z" fill="#112e42" stroke="#112e42"></path><path d="M685 277.9L670 238.1L588 212.4Z" fill="#081a28" stroke="#081a28"></path><path d="M592 205.4L668 158.1L566 182.1Z" fill="#277297" stroke="#277297"></path><path d="M670 238.1L668 158.1L592 205.4Z" fill="#081a28" stroke="#081a28"></path><path d="M542 363.9L685 277.9L588 212.4Z" fill="#112e42" stroke="#112e42"></path><path d="M670 238.1L750 203.4L668 158.1Z" fill="#1d4e6b" stroke="#1d4e6b"></path><path d="M542 363.9L669 358.6L685 277.9Z" fill="#00101c" stroke="#00101c"></path><path d="M273 64.7L321 203.4L444 173.7Z" fill="#081a28" stroke="#081a28"></path><path d="M444 173.7L321 203.4L438 242.9Z" fill="#112e42" stroke="#112e42"></path><path d="M297 333.1L352 401.6L458 289.9Z" fill="#205a7a" stroke="#205a7a"></path><path d="M449 425.6L540 433.3L542 363.9Z" fill="#246688" stroke="#246688"></path><path d="M449 425.6L542 363.9L458 289.9Z" fill="#1d4e6b" stroke="#1d4e6b"></path><path d="M542 363.9L540 433.3L669 358.6Z" fill="#205a7a" stroke="#205a7a"></path><path d="M419 423.3L449 425.6L458 289.9Z" fill="#205a7a" stroke="#205a7a"></path><path d="M668 158.1L632 67.7L572 100.7Z" fill="#1d4e6b" stroke="#1d4e6b"></path><path d="M572 100.7L637 0L499 87.4Z" fill="#081a28" stroke="#081a28"></path><path d="M352 401.6L419 423.3L458 289.9Z" fill="#19435d" stroke="#19435d"></path><path d="M614 572.3L683 506.6L540 433.3Z" fill="#205a7a" stroke="#205a7a"></path><path d="M321 203.4L304 216.4L438 242.9Z" fill="#19435d" stroke="#19435d"></path><path d="M669 358.6L697 345.9L685 277.9Z" fill="#277297" stroke="#277297"></path><path d="M685 277.9L750 203.4L670 238.1Z" fill="#246688" stroke="#246688"></path><path d="M683 506.6L697 345.9L669 358.6Z" fill="#277297" stroke="#277297"></path><path d="M637 0L452 28.7L499 87.4Z" fill="#00101c" stroke="#00101c"></path><path d="M499 87.4L452 28.7L444 173.7Z" fill="#205a7a" stroke="#205a7a"></path><path d="M321 203.4L254 169.4L304 216.4Z" fill="#15384f" stroke="#15384f"></path><path d="M297 333.1L458 289.9L438 242.9Z" fill="#297ea6" stroke="#297ea6"></path><path d="M304 216.4L297 333.1L438 242.9Z" fill="#246688" stroke="#246688"></path><path d="M799 231.4L750 203.4L685 277.9Z" fill="#15384f" stroke="#15384f"></path><path d="M668 158.1L682 0L632 67.7Z" fill="#277297" stroke="#277297"></path><path d="M637 0L426 0L452 28.7Z" fill="#0c2435" stroke="#0c2435"></path><path d="M452 28.7L273 64.7L444 173.7Z" fill="#112e42" stroke="#112e42"></path><path d="M219 284.1L275 336.9L297 333.1Z" fill="#1d4e6b" stroke="#1d4e6b"></path><path d="M297 333.1L291 380.6L352 401.6Z" fill="#205a7a" stroke="#205a7a"></path><path d="M275 336.9L291 380.6L297 333.1Z" fill="#19435d" stroke="#19435d"></path><path d="M682 0L637 0L632 67.7Z" fill="#00101c" stroke="#00101c"></path><path d="M632 67.7L637 0L572 100.7Z" fill="#081a28" stroke="#081a28"></path><path d="M273 64.7L254 169.4L321 203.4Z" fill="#297ea6" stroke="#297ea6"></path><path d="M304 216.4L219 284.1L297 333.1Z" fill="#205a7a" stroke="#205a7a"></path><path d="M697 345.9L799 231.4L685 277.9Z" fill="#1d4e6b" stroke="#1d4e6b"></path><path d="M781 0L682 0L668 158.1Z" fill="#112e42" stroke="#112e42"></path><path d="M799 231.4L798 208.1L750 203.4Z" fill="#277297" stroke="#277297"></path><path d="M781 0L668 158.1L750 203.4Z" fill="#19435d" stroke="#19435d"></path><path d="M291 380.6L286 420.3L352 401.6Z" fill="#112e42" stroke="#112e42"></path><path d="M352 401.6L358 600L419 423.3Z" fill="#112e42" stroke="#112e42"></path><path d="M614 572.3L540 433.3L545 600Z" fill="#00101c" stroke="#00101c"></path><path d="M211 355.1L286 420.3L291 380.6Z" fill="#19435d" stroke="#19435d"></path><path d="M327 0L273 64.7L452 28.7Z" fill="#297ea6" stroke="#297ea6"></path><path d="M254 169.4L219 284.1L304 216.4Z" fill="#246688" stroke="#246688"></path><path d="M275 336.9L211 355.1L291 380.6Z" fill="#081a28" stroke="#081a28"></path><path d="M74 218.1L219 284.1L254 169.4Z" fill="#0c2435" stroke="#0c2435"></path><path d="M426 0L327 0L452 28.7Z" fill="#0c2435" stroke="#0c2435"></path><path d="M540 433.3L449 425.6L545 600Z" fill="#081a28" stroke="#081a28"></path><path d="M540 433.3L683 506.6L669 358.6Z" fill="#205a7a" stroke="#205a7a"></path><path d="M697 345.9L881 331.9L799 231.4Z" fill="#1d4e6b" stroke="#1d4e6b"></path><path d="M219 284.1L211 355.1L275 336.9Z" fill="#15384f" stroke="#15384f"></path><path d="M165 64.7L228 78.7L200 0Z" fill="#205a7a" stroke="#205a7a"></path><path d="M273 64.7L228 78.7L254 169.4Z" fill="#246688" stroke="#246688"></path><path d="M219 284.1L147 380.9L211 355.1Z" fill="#15384f" stroke="#15384f"></path><path d="M545 600L449 425.6L358 600Z" fill="#15384f" stroke="#15384f"></path><path d="M798 208.1L781 0L750 203.4Z" fill="#297ea6" stroke="#297ea6"></path><path d="M640 600L728 530.3L683 506.6Z" fill="#205a7a" stroke="#205a7a"></path><path d="M683 506.6L827 444.6L697 345.9Z" fill="#277297" stroke="#277297"></path><path d="M358 600L449 425.6L419 423.3Z" fill="#277297" stroke="#277297"></path><path d="M614 572.3L640 600L683 506.6Z" fill="#00101c" stroke="#00101c"></path><path d="M200 474.3L242 482.6L286 420.3Z" fill="#081a28" stroke="#081a28"></path><path d="M286 420.3L358 600L352 401.6Z" fill="#297ea6" stroke="#297ea6"></path><path d="M165 64.7L165 108.4L228 78.7Z" fill="#15384f" stroke="#15384f"></path><path d="M228 78.7L165 108.4L254 169.4Z" fill="#277297" stroke="#277297"></path><path d="M545 600L606 600L614 572.3Z" fill="#19435d" stroke="#19435d"></path><path d="M728 530.3L827 444.6L683 506.6Z" fill="#277297" stroke="#277297"></path><path d="M885 132.7L781 0L798 208.1Z" fill="#081a28" stroke="#081a28"></path><path d="M885 132.7L808 0L781 0Z" fill="#081a28" stroke="#081a28"></path><path d="M885 132.7L798 208.1L900 226.1Z" fill="#15384f" stroke="#15384f"></path><path d="M827 444.6L881 331.9L697 345.9Z" fill="#297ea6" stroke="#297ea6"></path><path d="M606 600L640 600L614 572.3Z" fill="#1d4e6b" stroke="#1d4e6b"></path><path d="M900 226.1L798 208.1L799 231.4Z" fill="#1d4e6b" stroke="#1d4e6b"></path><path d="M881 331.9L900 226.1L799 231.4Z" fill="#1d4e6b" stroke="#1d4e6b"></path><path d="M200 0L228 78.7L273 64.7Z" fill="#277297" stroke="#277297"></path><path d="M211 355.1L200 474.3L286 420.3Z" fill="#297ea6" stroke="#297ea6"></path><path d="M242 482.6L358 600L286 420.3Z" fill="#277297" stroke="#277297"></path><path d="M147 380.9L200 474.3L211 355.1Z" fill="#277297" stroke="#277297"></path><path d="M74 218.1L254 169.4L165 108.4Z" fill="#277297" stroke="#277297"></path><path d="M74 218.1L147 380.9L219 284.1Z" fill="#246688" stroke="#246688"></path><path d="M235 600L358 600L242 482.6Z" fill="#15384f" stroke="#15384f"></path><path d="M327 0L200 0L273 64.7Z" fill="#15384f" stroke="#15384f"></path><path d="M147 380.9L196 477.6L200 474.3Z" fill="#081a28" stroke="#081a28"></path><path d="M200 474.3L196 477.6L242 482.6Z" fill="#19435d" stroke="#19435d"></path><path d="M900 226.1L900 131.4L885 132.7Z" fill="#00101c" stroke="#00101c"></path><path d="M885 132.7L900 56.7L808 0Z" fill="#277297" stroke="#277297"></path><path d="M900 354.6L900 346.9L881 331.9Z" fill="#0c2435" stroke="#0c2435"></path><path d="M881 331.9L900 346.9L900 226.1Z" fill="#19435d" stroke="#19435d"></path><path d="M827 444.6L900 354.6L881 331.9Z" fill="#19435d" stroke="#19435d"></path><path d="M900 131.4L900 56.7L885 132.7Z" fill="#15384f" stroke="#15384f"></path><path d="M900 547.3L889 449.3L827 444.6Z" fill="#246688" stroke="#246688"></path><path d="M827 444.6L889 449.3L900 354.6Z" fill="#112e42" stroke="#112e42"></path><path d="M808 600L827 444.6L728 530.3Z" fill="#15384f" stroke="#15384f"></path><path d="M0 41.7L165 108.4L165 64.7Z" fill="#297ea6" stroke="#297ea6"></path><path d="M0 156.4L74 218.1L165 108.4Z" fill="#297ea6" stroke="#297ea6"></path><path d="M900 56.7L900 0L808 0Z" fill="#081a28" stroke="#081a28"></path><path d="M158 600L235 600L196 477.6Z" fill="#205a7a" stroke="#205a7a"></path><path d="M196 477.6L235 600L242 482.6Z" fill="#246688" stroke="#246688"></path><path d="M115 465.6L196 477.6L147 380.9Z" fill="#112e42" stroke="#112e42"></path><path d="M71 433.9L115 465.6L147 380.9Z" fill="#297ea6" stroke="#297ea6"></path><path d="M640 600L808 600L728 530.3Z" fill="#15384f" stroke="#15384f"></path><path d="M200 0L112 0L165 64.7Z" fill="#205a7a" stroke="#205a7a"></path><path d="M0 264.9L71 433.9L147 380.9Z" fill="#15384f" stroke="#15384f"></path><path d="M115 465.6L158 600L196 477.6Z" fill="#0c2435" stroke="#0c2435"></path><path d="M808 600L900 547.3L827 444.6Z" fill="#00101c" stroke="#00101c"></path><path d="M889 449.3L900 547.3L900 354.6Z" fill="#081a28" stroke="#081a28"></path><path d="M71 433.9L80 487.3L115 465.6Z" fill="#0c2435" stroke="#0c2435"></path><path d="M808 600L865 600L900 547.3Z" fill="#081a28" stroke="#081a28"></path><path d="M134 600L158 600L115 465.6Z" fill="#15384f" stroke="#15384f"></path><path d="M71 433.9L0 497.6L80 487.3Z" fill="#19435d" stroke="#19435d"></path><path d="M74 218.1L0 264.9L147 380.9Z" fill="#0c2435" stroke="#0c2435"></path><path d="M0 156.4L0 253.1L74 218.1Z" fill="#081a28" stroke="#081a28"></path><path d="M0 253.1L0 264.9L74 218.1Z" fill="#0c2435" stroke="#0c2435"></path><path d="M0 41.7L0 156.4L165 108.4Z" fill="#277297" stroke="#277297"></path><path d="M80 487.3L134 600L115 465.6Z" fill="#19435d" stroke="#19435d"></path><path d="M865 600L900 600L900 547.3Z" fill="#0c2435" stroke="#0c2435"></path><path d="M0 264.9L0 423.3L71 433.9Z" fill="#205a7a" stroke="#205a7a"></path><path d="M80 487.3L22 603.3L134 600Z" fill="#205a7a" stroke="#205a7a"></path><path d="M112 0L0 41.7L165 64.7Z" fill="#297ea6" stroke="#297ea6"></path><path d="M112 0L0 0L0 41.7Z" fill="#15384f" stroke="#15384f"></path><path d="M0 0L-6 0L0 41.7Z" fill="#15384f" stroke="#15384f"></path><path d="M0 41.7L-6 0L0 156.4Z" fill="#112e42" stroke="#112e42"></path><path d="M0 156.4L-6 0L0 253.1Z" fill="#205a7a" stroke="#205a7a"></path><path d="M0 253.1L-6 0L0 264.9Z" fill="#297ea6" stroke="#297ea6"></path><path d="M0 264.9L-6 0L0 423.3Z" fill="#081a28" stroke="#081a28"></path><path d="M-6 0L0 497.6L0 423.3Z" fill="#081a28" stroke="#081a28"></path><path d="M0 423.3L0 497.6L71 433.9Z" fill="#19435d" stroke="#19435d"></path><path d="M0 497.6L22 603.3L80 487.3Z" fill="#246688" stroke="#246688"></path><path d="M134 600L22 603.3L158 600Z" fill="#112e42" stroke="#112e42"></path><path d="M158 600L22 603.3L235 600Z" fill="#19435d" stroke="#19435d"></path><path d="M235 600L22 603.3L358 600Z" fill="#112e42" stroke="#112e42"></path><path d="M358 600L22 603.3L545 600Z" fill="#246688" stroke="#246688"></path><path d="M545 600L22 603.3L606 600Z" fill="#297ea6" stroke="#297ea6"></path><path d="M606 600L22 603.3L640 600Z" fill="#15384f" stroke="#15384f"></path><path d="M640 600L22 603.3L808 600Z" fill="#19435d" stroke="#19435d"></path><path d="M808 600L22 603.3L865 600Z" fill="#15384f" stroke="#15384f"></path><path d="M865 600L22 603.3L900 600Z" fill="#297ea6" stroke="#297ea6"></path><path d="M0 497.6L0 600L22 603.3Z" fill="#00101c" stroke="#00101c"></path><path d="M-6 0L0 600L0 497.6Z" fill="#277297" stroke="#277297"></path></g></svg>